<svg width="35" height="36" viewBox="0 0 35 36" fill="none" xmlns="http://www.w3.org/2000/svg">
<rect y="0.5" width="35" height="35" rx="17.5" fill="#FF6434"/>
<path d="M21.125 9.25C20.2466 9.2498 19.3804 9.45535 18.5958 9.85019C17.8111 10.245 17.1299 10.8182 16.6067 11.5237C16.0834 12.2292 15.7327 13.0475 15.5826 13.913C15.4326 14.7784 15.4873 15.667 15.7425 16.5075L9.25 23V26.75H13L19.4925 20.2575C20.2662 20.4923 21.0814 20.5576 21.8826 20.4489C22.6838 20.3402 23.4522 20.06 24.1353 19.6275C24.8184 19.195 25.4003 18.6203 25.8412 17.9426C26.2822 17.2648 26.5718 16.5 26.6904 15.7002C26.8091 14.9004 26.7539 14.0844 26.5286 13.3079C26.3033 12.5314 25.9133 11.8125 25.3851 11.2004C24.8569 10.5882 24.203 10.0971 23.4678 9.76051C22.7326 9.42394 21.9335 9.24981 21.125 9.25ZM21.125 19.25C20.6947 19.2499 20.2667 19.1863 19.855 19.0612L19.1381 18.8438L18.6088 19.3731L16.6206 21.3612L15.7587 20.5L14.875 21.3837L15.7369 22.2456L14.7456 23.2369L13.8837 22.375L13 23.2587L13.8619 24.1206L12.4825 25.5H10.5V23.5175L16.6263 17.3912L17.1562 16.8619L16.9388 16.145C16.6716 15.2644 16.689 14.3219 16.9883 13.4517C17.2877 12.5815 17.8539 11.8279 18.6063 11.298C19.3587 10.7681 20.259 10.489 21.1792 10.5003C22.0994 10.5117 22.9926 10.8128 23.7317 11.3611C24.4708 11.9093 25.0183 12.6766 25.2961 13.5539C25.574 14.4312 25.5682 15.3738 25.2795 16.2476C24.9907 17.1214 24.4338 17.8819 23.688 18.4209C22.9421 18.96 22.0453 19.2501 21.125 19.25Z" fill="white"/>
<path d="M21.75 15.5C22.4404 15.5 23 14.9404 23 14.25C23 13.5596 22.4404 13 21.75 13C21.0596 13 20.5 13.5596 20.5 14.25C20.5 14.9404 21.0596 15.5 21.75 15.5Z" fill="white"/>
</svg>
