<svg width="35" height="36" viewBox="0 0 35 36" fill="none" xmlns="http://www.w3.org/2000/svg">
<rect y="0.5" width="35" height="35" rx="17.5" fill="#FF6434"/>
<path d="M15.0312 11.5938H14.875C14.9609 11.5938 15.0312 11.5234 15.0312 11.4375V11.5938ZM15.0312 11.5938H20.9688V11.4375C20.9688 11.5234 21.0391 11.5938 21.125 11.5938H20.9688V13H22.375V11.4375C22.375 10.748 21.8145 10.1875 21.125 10.1875H14.875C14.1855 10.1875 13.625 10.748 13.625 11.4375V13H15.0312V11.5938ZM24.875 13H11.125C10.7793 13 10.5 13.2793 10.5 13.625V14.25C10.5 14.3359 10.5703 14.4062 10.6562 14.4062H11.8359L12.3184 24.6211C12.3496 25.2871 12.9004 25.8125 13.5664 25.8125H22.4336C23.1016 25.8125 23.6504 25.2891 23.6816 24.6211L24.1641 14.4062H25.3438C25.4297 14.4062 25.5 14.3359 25.5 14.25V13.625C25.5 13.2793 25.2207 13 24.875 13ZM22.2832 24.4062H13.7168L13.2441 14.4062H22.7559L22.2832 24.4062Z" fill="white"/>
</svg>
