<svg width="35" height="36" viewBox="0 0 35 36" fill="none" xmlns="http://www.w3.org/2000/svg">
<rect y="0.5" width="35" height="35" rx="17.5" fill="#FF6434"/>
<path d="M12.1666 24.6668V23.8335C12.1666 22.2864 12.7812 20.8027 13.8752 19.7087C14.9691 18.6147 16.4529 18.0002 18 18.0002M18 18.0002C19.5471 18.0002 21.0308 18.6147 22.1247 19.7087C23.2187 20.8027 23.8333 22.2864 23.8333 23.8335V24.6668M18 18.0002C18.884 18.0002 19.7319 17.649 20.357 17.0239C20.9821 16.3987 21.3333 15.5509 21.3333 14.6668C21.3333 13.7828 20.9821 12.9349 20.357 12.3098C19.7319 11.6847 18.884 11.3335 18 11.3335C17.1159 11.3335 16.2681 11.6847 15.6429 12.3098C15.0178 12.9349 14.6666 13.7828 14.6666 14.6668C14.6666 15.5509 15.0178 16.3987 15.6429 17.0239C16.2681 17.649 17.1159 18.0002 18 18.0002Z" stroke="white" stroke-width="1.5" stroke-linecap="round" stroke-linejoin="round"/>
</svg>
