<svg width="35" height="36" viewBox="0 0 35 36" fill="none" xmlns="http://www.w3.org/2000/svg">
<rect y="0.5" width="35" height="35" rx="17.5" fill="#FF6434"/>
<path d="M13.5553 26.9728H22.4446C24.1775 26.9728 25.0396 26.1024 25.0396 24.3528V11.6546C25.0396 9.91351 24.1775 9.02637 22.4446 9.02637H13.5553C11.831 9.02637 10.9603 9.91351 10.9603 11.6549V24.3528C10.9603 26.1021 11.831 26.9728 13.5553 26.9728ZM13.6221 25.6253C12.76 25.6253 12.3078 25.1646 12.3078 24.3278V11.6799C12.3078 10.8514 12.76 10.3739 13.6307 10.3739H22.3778C23.2482 10.3739 23.6921 10.8428 23.6921 11.6799V24.3278C23.6921 25.1646 23.2482 25.6253 22.386 25.6253H13.6221ZM14.836 13.8728H21.1807C21.4735 13.8728 21.6996 13.6385 21.6996 13.3457C21.6996 13.061 21.4739 12.8435 21.1807 12.8435H14.836C14.526 12.8435 14.3085 13.061 14.3085 13.3457C14.3085 13.6385 14.5264 13.8728 14.836 13.8728ZM14.836 16.7942H21.1807C21.4735 16.7942 21.6996 16.5599 21.6996 16.2667C21.6996 15.9824 21.4739 15.7646 21.1807 15.7646H14.836C14.526 15.7646 14.3085 15.9824 14.3085 16.2667C14.3085 16.5596 14.5264 16.7942 14.836 16.7942ZM14.836 19.7157H17.841C18.1339 19.7157 18.36 19.4896 18.36 19.2049C18.36 18.9121 18.1339 18.686 17.841 18.686H14.8357C14.5257 18.686 14.3082 18.9121 14.3082 19.2049C14.3082 19.4896 14.526 19.7157 14.8357 19.7157" fill="white"/>
</svg>
