<svg width="35" height="36" viewBox="0 0 35 36" fill="none" xmlns="http://www.w3.org/2000/svg">
<rect y="0.5" width="35" height="35" rx="17.5" fill="#FF6434"/>
<path d="M19.5 10C19.1022 10 18.7206 10.158 18.4393 10.4393C18.158 10.7206 18 11.1022 18 11.5C18 11.8978 18.158 12.2794 18.4393 12.5607C18.7206 12.842 19.1022 13 19.5 13C19.8978 13 20.2794 12.842 20.5607 12.5607C20.842 12.2794 21 11.8978 21 11.5C21 11.1022 20.842 10.7206 20.5607 10.4393C20.2794 10.158 19.8978 10 19.5 10ZM19.14 14.77C17.95 14.87 14.7 17.46 14.7 17.46C14.5 17.61 14.56 17.6 14.72 17.88C14.88 18.15 14.86 18.17 15.05 18.04C15.25 17.91 15.58 17.7 16.13 17.36C18.25 16 16.47 19.14 15.56 24.43C15.2 27.05 17.56 25.7 18.17 25.3C18.77 24.91 20.38 23.8 20.54 23.69C20.76 23.54 20.6 23.42 20.43 23.17C20.31 23 20.19 23.12 20.19 23.12C19.54 23.55 18.35 24.45 18.19 23.88C18 23.31 19.22 19.4 19.89 16.71C20 16.07 20.3 14.67 19.14 14.77Z" fill="white"/>
</svg>
