<svg width="21" height="21" viewBox="0 0 21 21" fill="none" xmlns="http://www.w3.org/2000/svg">
<path fill-rule="evenodd" clip-rule="evenodd" d="M17.1663 12.1667C17.3083 12.1667 17.448 12.1303 17.5719 12.0611C17.6959 11.9919 17.8002 11.8922 17.8748 11.7714C17.9495 11.6506 17.992 11.5128 17.9984 11.3709C18.0048 11.2291 17.9748 11.0879 17.9113 10.9609L16.4313 8.00008L17.9113 5.03925C17.9748 4.91223 18.0048 4.7711 17.9984 4.62925C17.992 4.4874 17.9495 4.34954 17.8748 4.22874C17.8002 4.10795 17.6959 4.00822 17.5719 3.93903C17.448 3.86985 17.3083 3.83349 17.1663 3.83341H7.99967V3.00008C7.99967 2.77907 7.91188 2.56711 7.7556 2.41083C7.59932 2.25455 7.38735 2.16675 7.16634 2.16675C6.94533 2.16675 6.73337 2.25455 6.57709 2.41083C6.42081 2.56711 6.33301 2.77907 6.33301 3.00008V18.0001C6.33301 18.2211 6.42081 18.4331 6.57709 18.5893C6.73337 18.7456 6.94533 18.8334 7.16634 18.8334C7.38735 18.8334 7.59932 18.7456 7.7556 18.5893C7.91188 18.4331 7.99967 18.2211 7.99967 18.0001V12.1667H17.1663Z" fill="#FE8439"/>
</svg>
