<svg width="20" height="20" viewBox="0 0 20 20" fill="none" xmlns="http://www.w3.org/2000/svg">
<rect x="0.5" y="0.5" width="19" height="19" rx="9.5" stroke="#6B6B6B"/>
<path d="M9.2097 10.942H10.7913C10.8484 10.942 10.8972 10.9035 10.9 10.8557L11.3313 4.6532C11.3331 4.62789 11.3219 4.60352 11.3013 4.5857C11.2806 4.56695 11.2525 4.55664 11.2225 4.55664H8.77751C8.74751 4.55664 8.71938 4.56695 8.69876 4.5857C8.67907 4.60352 8.66782 4.62883 8.6697 4.6532L9.10095 10.8557C9.10376 10.9035 9.15157 10.942 9.2097 10.942ZM8.72032 14.2026C8.72032 13.9738 8.75313 13.7807 8.81876 13.6223C8.88438 13.4638 8.97532 13.3363 9.09251 13.2398C9.20876 13.1423 9.34657 13.072 9.50501 13.0279C9.66251 12.9848 9.83126 12.9623 10.0122 12.9623C10.1828 12.9623 10.3441 12.9848 10.4978 13.0279C10.6506 13.072 10.7856 13.1423 10.9028 13.2398C11.0191 13.3363 11.1119 13.4638 11.1803 13.6223C11.2488 13.7807 11.2825 13.9738 11.2825 14.2026C11.2825 14.421 11.2488 14.6076 11.1803 14.7632C11.1119 14.9198 11.02 15.0482 10.9028 15.1504C10.7856 15.2526 10.6516 15.3257 10.4978 15.3726C10.3441 15.4185 10.1828 15.442 10.0122 15.442C9.8322 15.442 9.66345 15.4185 9.50501 15.3726C9.34657 15.3257 9.20876 15.2516 9.09251 15.1504C8.97626 15.0473 8.88438 14.9198 8.81876 14.7632C8.75313 14.6085 8.72032 14.421 8.72032 14.2026Z" fill="#6B6B6B"/>
</svg>
