<svg width="24" height="22" viewBox="0 0 24 22" fill="none" xmlns="http://www.w3.org/2000/svg">
<path d="M20 19.79H18V18.0261C18 16.5648 16.6569 15.3803 15 15.3803H9C7.34315 15.3803 6 16.5648 6 18.0261V19.79H4V18.0261C4 15.5908 6.23858 13.6165 9 13.6165H15C17.7614 13.6165 20 15.5908 20 18.0261V19.79ZM12 11.8526C8.68629 11.8526 6 9.48351 6 6.56108C6 3.63864 8.68629 1.26953 12 1.26953C15.3137 1.26953 18 3.63864 18 6.56108C18 9.48351 15.3137 11.8526 12 11.8526ZM12 10.0888C14.2091 10.0888 16 8.50938 16 6.56108C16 4.61278 14.2091 3.03338 12 3.03338C9.79086 3.03338 8 4.61278 8 6.56108C8 8.50938 9.79086 10.0888 12 10.0888Z" fill="black"/>
</svg>
