<svg width="43" height="33" viewBox="0 0 43 33" fill="none" xmlns="http://www.w3.org/2000/svg">
<mask id="mask0_83_782" style="mask-type:luminance" maskUnits="userSpaceOnUse" x="0" y="0" width="43" height="33">
<path d="M0.22229 0.605591H42.9023V32.6156H0.22229V0.605591Z" fill="white"/>
</mask>
<g mask="url(#mask0_83_782)">
<path fill-rule="evenodd" clip-rule="evenodd" d="M0.22229 0.605591H42.9023V32.6156H0.22229V0.605591Z" fill="#E31D1C"/>
<path fill-rule="evenodd" clip-rule="evenodd" d="M20.2493 6.67181L18.9021 7.48517L19.2094 5.89797L18.0875 4.7101L19.6066 4.64587L20.2493 3.16382L20.8922 4.64587H22.4088L21.2894 5.89797L21.6264 7.48517L20.2493 6.67181Z" fill="#FECA00"/>
<path fill-rule="evenodd" clip-rule="evenodd" d="M9.58187 13.4191L5.73955 15.4877L6.61595 11.4511L3.41626 8.43008L7.74884 8.26674L9.58187 4.49756L11.4149 8.26674H15.7401L12.5478 11.4511L13.5089 15.4877L9.58187 13.4191Z" fill="#FECA00"/>
<path fill-rule="evenodd" clip-rule="evenodd" d="M22.9169 12.0068L21.5697 12.8201L21.877 11.2329L20.755 10.0451L22.2741 9.98083L22.9169 8.49878L23.5597 9.98083H25.0764L23.9569 11.2329L24.294 12.8201L22.9169 12.0068Z" fill="#FECA00"/>
<path fill-rule="evenodd" clip-rule="evenodd" d="M21.5831 17.3418L20.2359 18.1551L20.5432 16.5679L19.4213 15.38L20.9404 15.3158L21.5831 13.8337L22.226 15.3158H23.7426L22.6232 16.5679L22.9602 18.1551L21.5831 17.3418Z" fill="#FECA00"/>
<path fill-rule="evenodd" clip-rule="evenodd" d="M17.5819 21.3431L16.2346 22.1564L16.5419 20.5693L15.42 19.3813L16.9391 19.3171L17.5819 17.8351L18.2247 19.3171H19.7413L18.6219 20.5693L18.959 22.1564L17.5819 21.3431Z" fill="#FECA00"/>
</g>
</svg>
