<svg width="35" height="36" viewBox="0 0 35 36" fill="none" xmlns="http://www.w3.org/2000/svg">
<rect y="0.5" width="35" height="35" rx="17.5" fill="#FF6434"/>
<g clip-path="url(#clip0_205_13763)">
<path d="M16.4625 19.8945L16.455 19.877C16.3423 19.8462 16.2306 19.812 16.12 19.7745L16.1117 19.7712C14.9605 19.3773 13.9612 18.6333 13.2539 17.6434C12.5465 16.6534 12.1663 15.467 12.1667 14.2503C12.1663 12.7571 12.7386 11.3205 13.7657 10.2366C14.7927 9.15269 16.1964 8.50391 17.6875 8.42391C19.1786 8.34391 20.6436 8.83878 21.7807 9.80659C22.9179 10.7744 23.6406 12.1414 23.8 13.6262C23.8367 13.9695 23.5533 14.2503 23.2083 14.2503C22.8633 14.2503 22.5875 13.9687 22.5417 13.627C22.4308 12.8205 22.1072 12.0582 21.6042 11.4182C21.1011 10.7782 20.4367 10.2837 19.6793 9.98559C18.9218 9.68743 18.0986 9.59635 17.2943 9.72169C16.49 9.84704 15.7336 10.1843 15.1028 10.6988C14.4719 11.2133 13.9895 11.8865 13.7051 12.6492C13.4206 13.4119 13.3443 14.2366 13.4842 15.0385C13.624 15.8405 13.9748 16.5907 14.5006 17.2121C15.0264 17.8336 15.7081 18.3038 16.4758 18.5745C16.6305 18.2249 16.9006 17.9391 17.2409 17.765C17.5812 17.5909 17.971 17.5391 18.3449 17.6182C18.7189 17.6973 19.0543 17.9026 19.295 18.1996C19.5356 18.4966 19.6668 18.8672 19.6667 19.2495C19.6667 19.7478 19.4483 20.1945 19.1025 20.4995C18.7981 20.7683 18.4061 20.9168 18 20.917C17.6712 20.9182 17.3495 20.8216 17.0758 20.6395C16.802 20.4575 16.5886 20.1981 16.4625 19.8945ZM14.6642 20.5003C14.05 20.1721 13.4875 19.7551 12.995 19.2628C12.5385 19.3159 12.1173 19.5349 11.8116 19.8781C11.5059 20.2213 11.3369 20.6649 11.3367 21.1245V21.6062C11.3367 22.3495 11.6017 23.0695 12.085 23.6353C13.39 25.1637 15.3783 25.9187 18 25.9187C20.6217 25.9187 22.6108 25.1637 23.9183 23.6353C24.4028 23.0693 24.6691 22.3487 24.6692 21.6037V21.1245C24.6692 20.6275 24.4719 20.1508 24.1206 19.7992C23.7693 19.4477 23.2928 19.2499 22.7958 19.2495H20.9167C20.9167 19.6978 20.8167 20.1212 20.6358 20.4995H22.7958C22.9613 20.4999 23.1199 20.566 23.2367 20.6831C23.3536 20.8003 23.4192 20.959 23.4192 21.1245V21.6037C23.4193 22.0507 23.2597 22.4831 22.9692 22.8228C21.9217 24.0462 20.2825 24.6678 18 24.6678C15.7175 24.6678 14.08 24.0462 13.0358 22.8237C12.7455 22.4841 12.5859 22.0521 12.5858 21.6053V21.1245C12.5858 20.9587 12.6517 20.7998 12.7689 20.6825C12.8861 20.5653 13.0451 20.4995 13.2108 20.4995L14.6642 20.5003ZM14.6667 14.2503C14.6668 13.6754 14.8157 13.1102 15.0988 12.6098C15.3819 12.1094 15.7897 11.6907 16.2824 11.3944C16.7752 11.0982 17.3362 10.9344 17.9109 10.9191C18.4857 10.9037 19.0547 11.0373 19.5625 11.3068C20.0704 11.5763 20.4999 11.9726 20.8094 12.4572C21.1188 12.9418 21.2977 13.4981 21.3285 14.0723C21.3594 14.6464 21.2412 15.2188 20.9855 15.7337C20.7298 16.2487 20.3452 16.6887 19.8692 17.0112C19.3447 16.5734 18.6832 16.3336 18 16.3337C18.5525 16.3337 19.0824 16.1142 19.4731 15.7235C19.8638 15.3328 20.0833 14.8029 20.0833 14.2503C20.0833 13.6978 19.8638 13.1679 19.4731 12.7772C19.0824 12.3865 18.5525 12.167 18 12.167C17.4475 12.167 16.9176 12.3865 16.5269 12.7772C16.1362 13.1679 15.9167 13.6978 15.9167 14.2503C15.9167 14.8029 16.1362 15.3328 16.5269 15.7235C16.9176 16.1142 17.4475 16.3337 18 16.3337C17.2883 16.3337 16.6367 16.5887 16.1317 17.0112C15.6799 16.7063 15.31 16.295 15.0546 15.8136C14.7991 15.3322 14.6659 14.7953 14.6667 14.2503Z" fill="white"/>
</g>
<defs>
<clipPath id="clip0_205_13763">
<rect width="20" height="20" fill="white" transform="translate(8 8)"/>
</clipPath>
</defs>
</svg>
