<svg width="43" height="32" viewBox="0 0 43 32" fill="none" xmlns="http://www.w3.org/2000/svg">
<g clip-path="url(#clip0_240_2035)">
<path d="M0 0H42.68V32.01H0V0Z" fill="#012169"/>
<path d="M5.00156 0L21.2733 12.0704L37.4784 0H42.68V4.13462L26.675 16.0717L42.68 27.9421V32.01H37.345L21.34 20.0729L5.40169 32.01H0V28.0087L15.9383 16.1384L0 4.268V0H5.00156Z" fill="white"/>
<path d="M28.2755 18.7392L42.68 29.3425V32.01L24.6077 18.7392H28.2755ZM16.005 20.0729L16.4051 22.407L3.60113 32.01H0L16.005 20.0729ZM42.68 0V0.200062L26.0748 12.7373L26.2082 9.80306L39.3456 0H42.68ZM0 0L15.9383 11.737H11.9371L0 2.80087V0Z" fill="#C8102E"/>
<path d="M16.0717 0V32.01H26.7417V0H16.0717ZM0 10.67V21.34H42.68V10.67H0Z" fill="white"/>
<path d="M0 12.8707V19.2727H42.68V12.8707H0ZM18.2057 0V32.01H24.6077V0H18.2057Z" fill="#C8102E"/>
</g>
<defs>
<clipPath id="clip0_240_2035">
<rect width="42.68" height="32.01" fill="white"/>
</clipPath>
</defs>
</svg>
