<svg width="35" height="36" viewBox="0 0 35 36" fill="none" xmlns="http://www.w3.org/2000/svg">
<rect y="0.5" width="35" height="35" rx="17.5" fill="#FF6434"/>
<path d="M18 26.3332C13.3975 26.3332 9.66663 22.6023 9.66663 17.9998C9.66663 13.3973 13.3975 9.6665 18 9.6665C22.6025 9.6665 26.3333 13.3973 26.3333 17.9998C26.3333 22.6023 22.6025 26.3332 18 26.3332ZM18 24.6665C19.7681 24.6665 21.4638 23.9641 22.714 22.7139C23.9642 21.4636 24.6666 19.7679 24.6666 17.9998C24.6666 16.2317 23.9642 14.536 22.714 13.2858C21.4638 12.0355 19.7681 11.3332 18 11.3332C16.2318 11.3332 14.5362 12.0355 13.2859 13.2858C12.0357 14.536 11.3333 16.2317 11.3333 17.9998C11.3333 19.7679 12.0357 21.4636 13.2859 22.7139C14.5362 23.9641 16.2318 24.6665 18 24.6665ZM18 16.3332C18.221 16.3332 18.4329 16.421 18.5892 16.5772C18.7455 16.7335 18.8333 16.9455 18.8333 17.1665V21.3332C18.8333 21.5542 18.7455 21.7661 18.5892 21.9224C18.4329 22.0787 18.221 22.1665 18 22.1665C17.7789 22.1665 17.567 22.0787 17.4107 21.9224C17.2544 21.7661 17.1666 21.5542 17.1666 21.3332V17.1665C17.1666 16.9455 17.2544 16.7335 17.4107 16.5772C17.567 16.421 17.7789 16.3332 18 16.3332ZM18 15.4998C17.7789 15.4998 17.567 15.412 17.4107 15.2558C17.2544 15.0995 17.1666 14.8875 17.1666 14.6665C17.1666 14.4455 17.2544 14.2335 17.4107 14.0772C17.567 13.921 17.7789 13.8332 18 13.8332C18.221 13.8332 18.4329 13.921 18.5892 14.0772C18.7455 14.2335 18.8333 14.4455 18.8333 14.6665C18.8333 14.8875 18.7455 15.0995 18.5892 15.2558C18.4329 15.412 18.221 15.4998 18 15.4998Z" fill="white"/>
</svg>
