<svg width="35" height="36" viewBox="0 0 35 36" fill="none" xmlns="http://www.w3.org/2000/svg">
<rect y="0.5" width="35" height="35" rx="17.5" fill="#FF6434"/>
<path d="M24.6667 17.9998V12.7907C24.6668 12.7249 24.6538 12.6597 24.6287 12.599C24.6035 12.5382 24.5666 12.483 24.52 12.4365L21.8967 9.81317C21.803 9.71938 21.6759 9.66662 21.5434 9.6665H11.8334C11.7008 9.6665 11.5736 9.71918 11.4798 9.81295C11.3861 9.90672 11.3334 10.0339 11.3334 10.1665V25.8332C11.3334 25.9658 11.3861 26.093 11.4798 26.1867C11.5736 26.2805 11.7008 26.3332 11.8334 26.3332H18.8334M14.6667 16.3332H21.3334M14.6667 12.9998H18M14.6667 19.6665H17.1667" stroke="white" stroke-width="1.5" stroke-linecap="round" stroke-linejoin="round"/>
<path d="M21.3334 9.6665V12.4998C21.3334 12.6324 21.3861 12.7596 21.4798 12.8534C21.5736 12.9472 21.7008 12.9998 21.8334 12.9998H24.6667M24.66 20.604L26.79 21.1448C27.0117 21.2015 27.1675 21.4032 27.1609 21.6315C27.0175 26.4298 24.25 27.1665 24.25 27.1665C24.25 27.1665 21.4825 26.4298 21.3392 21.6315C21.3369 21.5204 21.3724 21.4118 21.4397 21.3235C21.507 21.2351 21.6023 21.1721 21.71 21.1448L23.84 20.604C24.1092 20.5357 24.3909 20.5357 24.66 20.604Z" stroke="white" stroke-width="1.5" stroke-linecap="round" stroke-linejoin="round"/>
</svg>
