<svg width="38" height="38" viewBox="0 0 38 38" fill="none" xmlns="http://www.w3.org/2000/svg">
<rect width="38" height="38" rx="19" fill="#FF6434"/>
<path d="M24.8741 23.4601L29.1568 27.7428L27.7426 29.157L23.4599 24.8743C21.92 26.1063 19.9671 26.8433 17.8431 26.8433C12.8751 26.8433 8.84314 22.8113 8.84314 17.8433C8.84314 12.8753 12.8751 8.84326 17.8431 8.84326C22.8111 8.84326 26.8431 12.8753 26.8431 17.8433C26.8431 19.9673 26.1061 21.9202 24.8741 23.4601ZM22.8678 22.7181C24.0906 21.4579 24.8431 19.7389 24.8431 17.8433C24.8431 13.9758 21.7106 10.8433 17.8431 10.8433C13.9756 10.8433 10.8431 13.9758 10.8431 17.8433C10.8431 21.7108 13.9756 24.8433 17.8431 24.8433C19.7387 24.8433 21.4577 24.0908 22.7179 22.868L22.8678 22.7181Z" fill="white"/>
</svg>
