<svg width="35" height="36" viewBox="0 0 35 36" fill="none" xmlns="http://www.w3.org/2000/svg">
<rect y="0.5" width="35" height="35" rx="17.5" fill="#FF6434"/>
<g clip-path="url(#clip0_652_15050)">
<path d="M19.351 16.3071C19.2702 16.0798 19.1212 15.8831 18.9243 15.7438C18.7274 15.6046 18.4922 15.5296 18.251 15.5291H17.348C17.0904 15.5277 16.8415 15.6219 16.6493 15.7935C16.4571 15.9651 16.3354 16.2018 16.3076 16.458C16.2799 16.7141 16.3481 16.9714 16.4991 17.1801C16.6501 17.3889 16.8731 17.5342 17.125 17.5881L18.5 17.8881C18.7812 17.9496 19.0297 18.1129 19.1978 18.3465C19.3659 18.5801 19.4417 18.8677 19.4107 19.1538C19.3797 19.4399 19.244 19.7045 19.0298 19.8967C18.8156 20.0889 18.5379 20.1952 18.25 20.1951H17.473C16.965 20.1951 16.533 19.8711 16.373 19.4181M17.862 15.5291V14.3621M17.862 21.3621V20.1961M12.998 24.4981V21.9981H15.498" stroke="white" stroke-linecap="round" stroke-linejoin="round"/>
<path d="M24.3879 16.804C24.6534 18.2192 24.4415 19.6825 23.7853 20.9642C23.1292 22.2459 22.0661 23.2735 20.7628 23.8857C19.4595 24.4979 17.9899 24.66 16.5845 24.3465C15.1791 24.0331 13.9176 23.2619 12.9979 22.154M11.6119 19.196C11.3465 17.7808 11.5584 16.3175 12.2145 15.0357C12.8706 13.754 13.9338 12.7264 15.237 12.1143C16.5403 11.5021 18.01 11.34 19.4154 11.6534C20.8207 11.9668 22.0823 12.738 23.0019 13.846" stroke="white" stroke-linecap="round" stroke-linejoin="round"/>
<path d="M23.002 11.502V14.002H20.502" stroke="white" stroke-linecap="round" stroke-linejoin="round"/>
</g>
<defs>
<clipPath id="clip0_652_15050">
<rect width="14" height="14" fill="white" transform="translate(11 11)"/>
</clipPath>
</defs>
</svg>
